<?xml version="1.0" encoding="utf-8"?>
<!-- Generator: Adobe Illustrator 22.0.0, SVG Export Plug-In . SVG Version: 6.00 Build 0)  -->
<svg version="1.1" xmlns="http://www.w3.org/2000/svg" xmlns:xlink="http://www.w3.org/1999/xlink" x="0px" y="0px"
	 viewBox="0 0 50 28.6" style="enable-background:new 0 0 50 28.6;" xml:space="preserve">
<style type="text/css">
	.st0{fill:#F99C3A;}
	.st1{fill:#FFFFFF;}
</style>
<g id="Base">
	<path class="st0" d="M49.7,0H8c0,0,0,0,0,0C7.9,0,7.8,0,7.7,0.1L0.1,7.7C0,7.8,0,7.9,0,8v20.3c0,0.2,0.1,0.3,0.3,0.3h41.7v0
		c0.1,0,0.1,0,0.2-0.1l7.7-7.7c0.1-0.1,0.1-0.1,0.1-0.2h0V0.3C50,0.1,49.9,0,49.7,0z"/>
</g>
<g id="Layers">
	<path class="st1" d="M30.2,17L30.2,17c-0.1-0.1,0-0.1,0-0.1l0.1,0c0.4-0.1,0.8-0.4,1-0.8c0.3-0.4,0.4-0.8,0.4-1.2v-4.8
		c0-0.3-0.1-0.6-0.2-0.8c-0.1-0.3-0.3-0.5-0.5-0.7c-0.2-0.2-0.4-0.3-0.7-0.5c-0.3-0.1-0.5-0.2-0.8-0.2h-8.2c-0.2,0-0.3,0.1-0.3,0.3
		v12c0,0.2,0.1,0.3,0.3,0.3h2.5c0.2,0,0.3-0.1,0.3-0.3v-3.4c0-0.1,0-0.1,0.1-0.1h2.2c0.1,0,0.1,0,0.1,0.1l1.9,3.5
		c0,0.1,0.1,0.2,0.2,0.2c0.1,0.1,0.2,0.1,0.3,0.1H32c0.1,0,0.2,0,0.2-0.1s0-0.1,0-0.2L30.2,17z M28.5,14h-4.4v-3.1h4.4V14z"/>
	<path class="st1" d="M18.3,7.9h-2.5c-0.1,0-0.2,0-0.2,0.1c-0.1,0.1-0.1,0.1-0.1,0.2v4.1c0,0.1,0,0.2-0.1,0.2
		c-0.1,0.1-0.1,0.1-0.2,0.1h-3.6c-0.2,0-0.3-0.1-0.3-0.3V8.3c0-0.2-0.1-0.3-0.3-0.3H8.3c-0.2,0-0.3,0.1-0.3,0.3v12
		c0,0.2,0.1,0.3,0.3,0.3h2.5c0.2,0,0.3-0.1,0.3-0.3v-4.2c0-0.1,0-0.2,0.1-0.2c0.1-0.1,0.1-0.1,0.2-0.1h3.6c0.1,0,0.2,0,0.2,0.1
		c0.1,0.1,0.1,0.1,0.1,0.2v4.2c0,0.1,0,0.2,0.1,0.2c0.1,0.1,0.1,0.1,0.2,0.1h2.5c0.1,0,0.2,0,0.2-0.1c0.1-0.1,0.1-0.1,0.1-0.2v-12
		c0-0.1,0-0.2-0.1-0.2C18.5,8,18.4,7.9,18.3,7.9z"/>
	<path class="st1" d="M42.9,8c-0.1-0.1-0.1-0.1-0.2-0.1h-9c-0.2,0-0.3,0.1-0.3,0.3v2.4c0,0.1,0,0.2,0.1,0.2c0.1,0.1,0.1,0.1,0.2,0.1
		h2.6c0.1,0,0.2,0,0.2,0.1c0.1,0.1,0.1,0.1,0.1,0.2v9c0,0.1,0,0.2,0.1,0.2c0.1,0.1,0.1,0.1,0.2,0.1h2.5c0.1,0,0.2,0,0.2-0.1
		c0.1-0.1,0.1-0.1,0.1-0.2v-9c0-0.1,0-0.2,0.1-0.2c0.1-0.1,0.1-0.1,0.2-0.1h2.6c0.1,0,0.2,0,0.2-0.1c0.1-0.1,0.1-0.1,0.1-0.2V8.3
		C43,8.2,42.9,8.1,42.9,8z"/>
</g>
</svg>
