<svg xmlns="http://www.w3.org/2000/svg" xmlns:osb="http://www.openswatchbook.org/uri/2009/osb" xmlns:svg="http://www.w3.org/2000/svg" xmlns:xlink="http://www.w3.org/1999/xlink" id="svg8" width="793.701" height="1122.52" version="1.1" viewBox="0 0 210 297"><defs id="defs2"><linearGradient id="linearGradient5965" osb:paint="solid"><stop id="stop5963" offset="0" stop-color="#fff" stop-opacity="1"/></linearGradient><linearGradient id="linearGradient4524" osb:paint="solid"><stop id="stop4522" offset="0" stop-color="#fff" stop-opacity="1"/></linearGradient><linearGradient id="linearGradient5967" x1="364.012" x2="458.797" y1="631.066" y2="631.066" gradientUnits="userSpaceOnUse" xlink:href="#linearGradient5965"/></defs><metadata id="metadata5"/><g id="layer1"><circle id="path3713" cx="108.857" cy="166.976" r="12.7" stroke-width=".265"/><path id="path3715" fill="url(#linearGradient5967)" fill-opacity="1" stroke-width=".714" d="m 399.30785,677.13393 c -16.04641,-4.2032 -29.78428,-18.01643 -34.07572,-34.26264 -1.62708,-6.15968 -1.62708,-17.41174 0,-23.57143 3.37163,-12.76407 13.16526,-24.88593 24.67448,-30.54033 7.53267,-3.70075 13.56423,-5.14975 21.49288,-5.1634 13.14179,-0.0226 23.87304,4.53492 33.51287,14.23281 9.91353,9.97324 13.88482,19.48517 13.88482,33.25664 0,13.77146 -3.97129,23.28339 -13.88482,33.25664 -6.95637,6.99826 -13.06397,10.58267 -21.86967,12.83478 -7.15003,1.82868 -16.65499,1.81143 -23.73484,-0.0431 z" transform="scale(0.26458333)"/></g></svg>