<?xml version="1.0" encoding="utf-8"?>
<!-- Generator: Adobe Illustrator 22.0.1, SVG Export Plug-In . SVG Version: 6.00 Build 0)  -->
<svg version="1.1" id="Layer_1" xmlns="http://www.w3.org/2000/svg" xmlns:xlink="http://www.w3.org/1999/xlink" x="0px" y="0px"
	 viewBox="0 0 640 480" style="enable-background:new 0 0 640 480;" xml:space="preserve">
<style type="text/css">
	.st0{fill:#C59C60;}
	.st1{fill:none;stroke:#C69D5F;stroke-width:2;stroke-miterlimit:10;}
</style>
<g>
	<path class="st0" d="M214.9,291.8V309c0,0.8-0.6,1.4-1.4,1.4h-2.6c-0.8,0-1.4-0.6-1.4-1.4v-43.6c0-0.7,0.6-1.3,1.3-1.3h7.1
		c8.4,0,10.7,3.7,10.7,10.3v7.1c0,6.7-2.3,10.4-10.7,10.4H214.9z M217.9,287.4c4.3,0,5.3-2.2,5.3-5.9v-7.2c0-3.6-1-5.8-5.3-5.8h-3
		v18.9H217.9z"/>
	<path class="st0" d="M245.2,310.4h-2.6c-0.8,0-1.4-0.6-1.4-1.4l0-43.6c0-0.7,0.6-1.3,1.3-1.3h2.7c0.8,0,1.4,0.6,1.4,1.4l0,43.5
		C246.6,309.7,246,310.4,245.2,310.4z"/>
	<path class="st0" d="M275.4,265.4c0-0.7,0.6-1.3,1.3-1.3h2.4c0.7,0,1.3,0.6,1.3,1.3V309c0,0.8-0.6,1.4-1.4,1.4h-3.3
		c-0.9,0-1.2-0.4-1.5-1.2l-6.4-24l-2.2-9.4l-0.3,0.1l0.5,9.7V309c0,0.8-0.6,1.4-1.4,1.4h-2.3c-0.8,0-1.4-0.6-1.4-1.4l0-43.6
		c0-0.7,0.6-1.3,1.3-1.3h3.4c0.9,0,1.3,0.4,1.5,1.2l6.4,24l2.2,9.4l0.3-0.1l-0.5-9.7V265.4z"/>
	<path class="st0" d="M309.9,265.4c0-0.7,0.6-1.3,1.3-1.3h2.4c0.7,0,1.3,0.6,1.3,1.3V309c0,0.8-0.6,1.4-1.4,1.4h-3.3
		c-0.9,0-1.2-0.4-1.5-1.2l-6.4-24l-2.2-9.4l-0.3,0.1l0.5,9.7V309c0,0.8-0.6,1.4-1.4,1.4h-2.3c-0.8,0-1.4-0.6-1.4-1.4v-43.5
		c0-0.8,0.6-1.4,1.4-1.4h3.3c0.9,0,1.3,0.4,1.5,1.2l6.4,24l2.2,9.4l0.3-0.1l-0.5-9.7V265.4z"/>
	<path class="st0" d="M339,268.5l-5.6,40.6c-0.1,0.8-0.6,1.3-1.4,1.3h-2.7c-0.9,0-1.3-0.7-1.2-1.6l6.7-43.4c0.1-1,0.6-1.4,1.5-1.4
		h5.8c0.9,0,1.3,0.4,1.5,1.4l6.7,43.4c0.1,1-0.3,1.6-1.2,1.6h-2.7c-0.7,0-1.3-0.4-1.3-1.3l-5.6-40.6 M339.3,268.5H339"/>
	<path class="st0" d="M381.9,280.5c0,0.8-0.6,1.4-1.4,1.4h-2.6c-0.8,0-1.4-0.6-1.4-1.4v-7.6c0-3.1-0.8-5-4.5-5c-3.6,0-4.5,1.9-4.5,5
		v28.7c0,3.1,0.8,5,4.5,5c3.6,0,4.5-1.9,4.5-5v-7.7c0-0.7,0.6-1.3,1.3-1.3h2.7c0.8,0,1.4,0.6,1.4,1.4v7.6c0,6.2-2.2,9.6-9.9,9.6
		c-7.7,0-9.9-3.4-9.9-9.6v-28.7c0-6.2,2.2-9.6,9.9-9.6c7.7,0,9.9,3.4,9.9,9.6V280.5z"/>
	<path class="st0" d="M401.1,305.9h10.4c0.8,0,1.4,0.6,1.4,1.4v1.7c0,0.8-0.6,1.4-1.4,1.4h-14.4c-0.8,0-1.4-0.6-1.4-1.4v-43.6
		c0-0.7,0.6-1.3,1.3-1.3h2.7c0.8,0,1.4,0.6,1.4,1.4V305.9z"/>
	<path class="st0" d="M439.7,264c0.8,0,1.4,0.6,1.4,1.4v1.7c0,0.8-0.6,1.4-1.4,1.4h-10.4v16.3h8.2c0.8,0,1.4,0.6,1.4,1.4v1.7
		c0,0.8-0.6,1.4-1.4,1.4h-8.2v16.6h10.4c0.8,0,1.4,0.6,1.4,1.4v1.7c0,0.8-0.6,1.4-1.4,1.4h-14.4c-0.8,0-1.4-0.6-1.4-1.4l0-43.6
		c0-0.7,0.6-1.3,1.3-1.3H439.7z"/>
</g>
<g>
	<g>
		<path class="st1" d="M312.4,205.3c2.1,2.1,4.8,3.1,7.6,3.1c2.7,0,5.5-1,7.6-3.1c4.2-4.2,4.2-11,0-15.2L312.4,205.3z"/>
		<polyline class="st1" points="327.6,190.2 320,182.6 297.2,205.4 		"/>
	</g>
	<circle class="st1" cx="319.5" cy="194.9" r="24.6"/>
</g>
</svg>
